<?xml version="1.0" encoding="iso-8859-1"?>
<!-- Generator: Adobe Illustrator 16.0.0, SVG Export Plug-In . SVG Version: 6.00 Build 0)  -->
<!DOCTYPE svg PUBLIC "-//W3C//DTD SVG 1.1//EN" "http://www.w3.org/Graphics/SVG/1.1/DTD/svg11.dtd">
<svg version="1.1" id="Capa_1" xmlns="http://www.w3.org/2000/svg" xmlns:xlink="http://www.w3.org/1999/xlink" x="0px" y="0px"
	 width="327.036px" height="327.036px" viewBox="0 0 327.036 327.036" style="enable-background:new 0 0 327.036 327.036;"
	 xml:space="preserve">
<g>
	<g>
		<path style="fill:#030303;" d="M157.663,0v0.689H1.035v158.009v10.327v158.012h168.338v-0.687h156.628V168.338v-10.329V0H157.663z
			 M314.291,11.71v144.917H169.373V11.71H314.291z M12.746,12.399h144.917v144.917H12.746V12.399z M12.746,170.414h144.917v144.917
			H12.746V170.414z M314.291,314.64H169.373V169.723h144.918V314.64z"/>
		<rect x="214.02" y="79.003" style="fill:#030303;" width="58.553" height="11.71"/>
		<rect x="212.556" y="221.481" style="fill:#030303;" width="58.553" height="11.711"/>
		<rect x="212.556" y="251.17" style="fill:#030303;" width="58.553" height="11.71"/>
		<polygon style="fill:#030303;" points="91.06,54.893 79.349,54.893 79.349,78.314 55.928,78.314 55.928,90.024 79.349,90.024 
			79.349,113.445 91.06,113.445 91.06,90.024 114.48,90.024 114.48,78.314 91.06,78.314 		"/>
		<polygon style="fill:#030303;" points="101.77,217.342 85.204,233.901 68.639,217.342 60.359,225.621 76.925,242.181 
			60.359,258.74 68.639,267.02 85.204,250.461 101.77,267.02 110.049,258.74 93.484,242.181 110.049,225.621 		"/>
	</g>
</g>
<g>
</g>
<g>
</g>
<g>
</g>
<g>
</g>
<g>
</g>
<g>
</g>
<g>
</g>
<g>
</g>
<g>
</g>
<g>
</g>
<g>
</g>
<g>
</g>
<g>
</g>
<g>
</g>
<g>
</g>
</svg>
